# xmcd CD database file
#
# Track frame offsets:
#	150
#	15804
#	27943
#	39625
#	50874
#	71514
#	87218
#	98901
#	118744
#	130306
#	148827
#	156999
#	169248
#	179441
#	191210
#	205816
#	220548
#	229994
#	241251
#	250987
#	264577
#	274966
#	286578
#	298190
#	311760
#	323851
#	334437
#
# Disc length: 4661 seconds
#
# Revision: 0
# Processed by: cddbd v1.5.2PL0 Copyright (c) Steve Scherf et al.
# Submitted via: CDex 2.07
#
DISCID=a512331b
DTITLE=Frank Sinatra - Sinatra-Basie - Plus Sinatra And Swinging Brass
DYEAR=2013
DGENRE=Jazz
TTITLE0=Sinatra-Basie -  Pennies From Heaven
TTITLE1=Sinatra-Basie - Please Be Kind
TTITLE2=Sinatra-Basie - (Love Is) The Tender Trap
TTITLE3=Sinatra-Basie - Looking At The World Thru Rose Coloured Glasses
TTITLE4=Sinatra-Basie - My Kind Of Girl
TTITLE5=Sinatra-Basie - I Only Have Eyes For You
TTITLE6=Sinatra-Basie - Nice Work If You Can Get It
TTITLE7=Sinatra-Basie - Learnin' The Blues
TTITLE8=Sinatra-Basie - I'm Gonna Sit Right Down And Write Myself A Letter
TTITLE9=Sinatra-Basie - I Won't Dance
TTITLE10=Sinatra And Swing Brass - Goody Goody
TTITLE11=Sinatra And Swing Brass - They can't Take That Away From Me
TTITLE12=Sinatra And Swing Brass - At Long Last Love
TTITLE13=Sinatra And Swing Brass - I'm Beginning To See The Light
TTITLE14=Sinatra And Swing Brass - Don't Cha Go 'Way Mad
TTITLE15=Sinatra And Swing Brass - I Get A Kick Out Of You
TTITLE16=Sinatra And Swing Brass - Tangerine
TTITLE17=Sinatra And Swing Brass - Love Is Just Around The Corner
TTITLE18=Sinatra And Swing Brass - Ain't She Sweet
TTITLE19=Sinatra And Swing Brass - Serenade In Blue
TTITLE20=Sinatra And Swing Brass - I Love You
TTITLE21=Sinatra And Swing Brass - Pick Yourself Up
TTITLE22=Frank Sinatra - Everybody's Twistin'
TTITLE23=Frank Sinatra - Nothing But The Best
TTITLE24=Frank Sinatra - Pennies From Heaven
TTITLE25=Frank Sinatra - Nice Work If You Can Get It
TTITLE26=Frank Sinatra - I Won't Dance
EXTD=YEAR: 2013
EXTT0=
EXTT1=
EXTT2=
EXTT3=
EXTT4=
EXTT5=
EXTT6=
EXTT7=
EXTT8=
EXTT9=
EXTT10=
EXTT11=
EXTT12=
EXTT13=
EXTT14=
EXTT15=
EXTT16=
EXTT17=
EXTT18=
EXTT19=
EXTT20=
EXTT21=
EXTT22=
EXTT23=
EXTT24=
EXTT25=
EXTT26=
PLAYORDER=
